PathFileType	4	(X/Y/Z)	13_coords_data.trc
DataRate	CameraRate	NumFrames	NumMarkers	Units	OrigDataRate	OrigDataStartFrame	OrigNumFrames
30.0	30.0	5	21	m	30.0	32	62
Frame#	Time	THUMB_TIP	THUMB_IP	THUMB_MCP	THUMB_CMC	INDEX_TIP	INDEX_DIP	INDEX_PIP	INDEX_MCP	MIDDLE_TIP	MIDDLE_DIP	MIDDLE_PIP	MIDDLE_MCP	RING_TIP	RING_DIP	RING_PIP	RING_MCP	PINKY_TIP	PINKY_DIP	PINKY_PIP	PINKY_MCP	WRIST
X1	Y1	Z1	X2	Y2	Z2	X3	Y3	Z3	X4	Y4	Z4	X5	Y5	Z5	X6	Y6	Z6	X7	Y7	Z7	X8	Y8	Z8	X9	Y9	Z9	X10	Y10	Z10	X11	Y11	Z11	X12	Y12	Z12	X13	Y13	Z13	X14	Y14	Z14	X15	Y15	Z15	X16	Y16	Z16	X17	Y17	Z17	X18	Y18	Z18	X19	Y19	Z19	X20	Y20	Z20	X21	Y21	Z21
30	1.0333333333333288	0.5375341246953224	-0.02899025819336276	-0.1250422342735425	0.5153808336573457	-0.02386932163319483	-0.1283600204229861	0.48684561979814067	-0.01637284819536	-0.11844213476094723	0.4699581696115094	-0.028623404694519405	-0.07901336491385524	0.5706892092067459	0.04454138429979143	-0.15918206811404537	0.5561565209941322	0.04349010105418899	-0.14842587097693055	0.5368026840263044	0.039257738622104854	-0.13294924550927037	0.506692109140366	0.020502522993209593	-0.10938589980557331	0.5139107083350507	-0.014137222716490871	-0.12293559759550457	0.5313768668421144	-0.01243829048583961	-0.12741297811113872	0.5508094994506062	0.007131765985607996	-0.11798985603786971	0.5222491088067935	0.020314260014973495	-0.08626173194522024	0.5268520249503837	-0.025068775047521863	-0.10953260759243244	0.544433496350286	-0.02117978232338691	-0.11040873486974057	0.561309730475585	-0.006622041685517777	-0.09929815935500533	0.5344310625391121	0.005609243697393296	-0.07168197385007691	0.6080665730630146	-0.0152857950771354	-0.07316373307169602	0.5914941724462838	-0.014136609280985923	-0.06903639618158092	0.5708475070712752	-0.013217702938893794	-0.0653373640072295	0.534963382840108	-0.01624196058652838	-0.06332069724177539	0.462283081001861	-0.023011742144276925	-0.051989820119430985
31	1.0666666666666622	0.5362652922232382	-0.028168957660141825	-0.12768844162827242	0.5141842165547555	-0.02206652565918188	-0.1294734965283808	0.486170757276395	-0.01411391891019731	-0.11848158381240417	0.47006670306685827	-0.02769058507386496	-0.07915953435034509	0.5739439582461766	0.03893401824888093	-0.15731108804882316	0.5597487269512234	0.03995960553123945	-0.14611092826384495	0.5403329901407922	0.03805245978004773	-0.13025527336750667	0.5087558228472838	0.02116336639837213	-0.10720582381957089	0.5179005719079303	-0.014697773404954206	-0.12444259647992906	0.5356348536837294	-0.012460045944097886	-0.12735598380527482	0.553952297218817	0.006966908172485575	-0.11567376372127358	0.5241420571636799	0.018905291218335563	-0.08460975691104922	0.5300359372875271	-0.026342611373552982	-0.11155259641727203	0.5475565857650377	-0.022177901137911127	-0.11072672379958629	0.5634604540100316	-0.008033561018909507	-0.09779673553803414	0.5356215894898874	0.003142824229559027	-0.07068941422059527	0.6078440018200553	-0.023080811378327626	-0.07483319693157578	0.5915776258657329	-0.0207284975517118	-0.07005076732166471	0.5711994996702269	-0.01835376810648698	-0.06558930435285995	0.5352497212793266	-0.01882390342413026	-0.06271252535052765	0.462283081001861	-0.023011742144276925	-0.05198982011943101
32	1.0999999999999952	0.5347898037341535	-0.026284744665079185	-0.13123436077146325	0.5128683472409513	-0.019413912692281488	-0.130743022580168	0.4855341685569652	-0.011236695473763103	-0.11830132678606176	0.47021465338853985	-0.026518937701027534	-0.07929292349251993	0.5772388987430033	0.03326242253072792	-0.154773481521817	0.5636074954562673	0.03616368351857002	-0.14320769019070656	0.5443494277316681	0.0364186931681037	-0.12704997901017756	0.5113878185266758	0.02154977986311507	-0.10455367198555435	0.5241125763738007	-0.016125189473978896	-0.12608014994915023	0.5419500925710425	-0.013092520765296545	-0.1268713113843285	0.558102851729036	0.006392923902543202	-0.11242086614273059	0.5263883794856578	0.016885938394785027	-0.08275208089308478	0.5350678099329989	-0.02854568543403213	-0.11382137252978261	0.5522154808666361	-0.02390178358276618	-0.11075680777316466	0.5662980665864887	-0.010046341751720034	-0.0955947666800433	0.5369374145222657	-5.641892490493294e-05	-0.06965494427745306	0.6070219831854224	-0.03184288879721303	-0.07676308993755171	0.5911754377284406	-0.02831961150691742	-0.07133413845356365	0.571220492361067	-0.024474023828908453	-0.06605932757582764	0.5354303061857952	-0.022135593556220134	-0.06225436129487946	0.4622830810018609	-0.023011742144276925	-0.05198982011943096
33	1.1333333333333284	0.5332066365320071	-0.02294726998519747	-0.1352058051503571	0.5116640116793696	-0.015663802627733536	-0.1319093801608746	0.48514740367034626	-0.007616065104131542	-0.11773463429200617	0.47045590370898993	-0.02500866932624285	-0.0793738842047299	0.5806155886371914	0.02787866144063894	-0.15157536818733094	0.5677138256050066	0.03229955702746157	-0.13965898480680142	0.5487911125520042	0.0343620971091394	-0.12323684450399053	0.5145449166977493	0.02158767214025009	-0.10138167966301473	0.533006889485013	-0.01861887023177078	-0.1281222225598964	0.5504516099530666	-0.014321226841696733	-0.12583924444278333	0.5629327489008809	0.005239403319036162	-0.10820369885211933	0.528906107305454	0.014217963050204119	-0.08067696552086076	0.5422806426918654	-0.0317049300033051	-0.11669099984876335	0.5583710446182893	-0.026347437273874175	-0.11057575353318216	0.5694475188760323	-0.012772779838113979	-0.09287772052046228	0.5382464886025351	-0.003981177066232744	-0.06871319560119743	0.6053846395907236	-0.04119564810951293	-0.07949018792097318	0.5900779848742518	-0.03662167575658043	-0.07334322946126975	0.5707118457980359	-0.031385687110176363	-0.06715056451188095	0.5353801345566297	-0.026106376058733727	-0.06218241530155988	0.4622830810018608	-0.023011742144276925	-0.051989820119430985
34	1.1666666666666616	0.5316058115008705	-0.01794538130709128	-0.13909669858699666	0.5107506514564516	-0.010773803381393332	-0.13264450751904772	0.4851507778087629	-0.0032653270694469883	-0.1166105045037269	0.47083100096483466	-0.023143314116628344	-0.07933182933826283	0.5840813676659433	0.02264982925147352	-0.1480418720814925	0.5720055810647839	0.028151596796217704	-0.13571685963335028	0.5535591582193892	0.031600872333015506	-0.11898838643702572	0.5181821197749767	0.02103137052086257	-0.09776606619758282	0.5455252462931168	-0.02210725188468038	-0.13104717650852052	0.5611135069378924	-0.015982840811711363	-0.1241553176098028	0.5679763857309778	0.0032016241928029543	-0.10331624980046958	0.5315830003063605	0.01076519986821528	-0.07852791098284057	0.5522826698618507	-0.0355996837887656	-0.12013253904701132	0.5659126838485748	-0.029411019510022618	-0.11008648742626409	0.5725282866440632	-0.01638953490710765	-0.08991584744166328	0.539396174801592	-0.008627691878957733	-0.06808152144647073	0.602792603558361	-0.05080880450820463	-0.08324325134934962	0.5881229058528648	-0.04535920724410947	-0.07630770098268638	0.5694991510446067	-0.0388789574865131	-0.06909839179795454	0.5349717161149959	-0.03064204126359621	-0.06270363618744482	0.4622830810018609	-0.023011742144276925	-0.05198982011943096
